<svg xmlns="http://www.w3.org/2000/svg" viewBox="0 0 1095.36 706.26"><defs><style>.cls-1,.cls-2{fill:#fff;}.cls-2{fill-rule:evenodd;}</style></defs><title>camplive-white</title><g id="Layer_2" data-name="Layer 2"><g id="headers"><path class="cls-1" d="M1043.69,226q30.52,20.86,42.28,57.26a166.15,166.15,0,0,1,7.34,34.07q2.06,18.21,2,51.09,0,5.88-6.46,5.88H914.48q-3.53,0-3.52,3.52a62.43,62.43,0,0,0,4.11,21.73q7,20.58,23.49,31.71t39.93,11.17q41.7,0,66.37-27c3.14-3.12,6.07-3.52,8.82-1.17l34.63,30.54c2.75,2.35,2.94,5.1.59,8.22q-18.8,22.32-48.74,35.24t-67.53,12.92q-44.65,0-75.48-20.85t-42.58-57.85q-10-31.12-10-69.3,0-40.51,9.39-69.89,11.75-37,42.58-57.55t73.12-20.56Q1013.15,205.13,1043.69,226ZM935,270.62a51,51,0,0,0-20.56,26.72A76,76,0,0,0,911,321.41c0,2.37,1.17,3.53,3.52,3.53h111c2.35,0,3.52-1.16,3.52-3.53a76,76,0,0,0-3.52-24.07,51.06,51.06,0,0,0-20.56-26.72q-14.68-9.69-34.64-9.69Q949.7,260.93,935,270.62Z"/><path class="cls-1" d="M367.24,116.58v10h-29V476h29v10h-161V476h29V126.6h-29v-10Z"/><path class="cls-2" d="M125.55,9.86l2.49.83c19.74,27.91,17.5,74.35,17.5,110.68,0,74.62-13.06,150.11-20,226.14-7.06,77.32-15,153.23-20,226.14,39.82-1,72.76-36.67,120-29.32,20.13,15.1,38.44,38.6,25,48.17,13.77,13.3,29,25.86,37.49,41.84-38.57,15.57-71.39,33.26-110,47.3-44.47,16.18-73.6,31.49-137.43,21.38l-12.5-4.14C17.72,684.29,11,680,.61,664.56-3.67,465.82,16.14,276.06,13.09,92a283.85,283.85,0,0,1,5-59.15c21.95,18.8,29.23-4.22,42.48,1.54,15.26,6.64,2.61,17.34,15,21.77,11.26-3.58.27-33.24,17.49-29.83,12.94,7.21.58,14.59,10,22.18C109.28,34.14,118.5,23.28,125.55,9.86Z"/><path class="cls-1" d="M536,106.52c164.39,0,5.46,433.72,56.41,433.72,55.21,0,322.11-431.9,109.19-503.48,0,0,115.27-97.06,138.91,24.25,31,160.76-197.74,563.55-303.3,563.55s49.74-485.29-20-485.29c-72.78,0-81.89,151.66-12.13,175.31C344.34,329.14,377.71,106.52,536,106.52Z"/></g></g></svg>