<svg xmlns="http://www.w3.org/2000/svg" viewBox="0 0 2047.76 706.26"><defs><style>.cls-1{fill-rule:evenodd;}</style></defs><title>camplive-black</title><g id="Layer_2" data-name="Layer 2"><g id="headers"><path d="M1996.09,226q30.53,20.86,42.29,57.26a166.82,166.82,0,0,1,7.33,34.07q2.05,18.21,2,51.09,0,5.88-6.46,5.88H1866.89c-2.36,0-3.53,1.17-3.53,3.52a62.43,62.43,0,0,0,4.11,21.73q7,20.58,23.49,31.71t39.93,11.17q41.7,0,66.37-27c3.14-3.12,6.07-3.52,8.82-1.17l34.63,30.54c2.75,2.35,2.94,5.1.59,8.22q-18.79,22.32-48.74,35.24T1925,501.13q-44.65,0-75.48-20.85T1807,422.43q-10-31.12-10-69.3,0-40.51,9.39-69.89,11.74-37,42.59-57.55t73.11-20.56Q1965.55,205.13,1996.09,226Zm-108.65,44.64a50.94,50.94,0,0,0-20.55,26.72,75.67,75.67,0,0,0-3.53,24.07c0,2.37,1.17,3.53,3.53,3.53h111c2.36,0,3.52-1.16,3.52-3.53a75.68,75.68,0,0,0-3.52-24.07,51.09,51.09,0,0,0-20.55-26.72q-14.7-9.69-34.65-9.69Q1902.1,260.93,1887.44,270.62Z"/><path d="M1319.64,116.58v10h-29V476h29v10h-161V476h29V126.6h-29v-10Z"/><path class="cls-1" d="M1078,9.86l2.49.83c19.74,27.91,17.5,74.35,17.5,110.68,0,74.62-13.06,150.11-20,226.14-7.06,77.32-15,153.23-20,226.14,39.82-1,72.76-36.67,120-29.32,20.12,15.1,38.43,38.6,25,48.17,13.77,13.3,29,25.86,37.49,41.84-38.57,15.57-71.38,33.26-109.95,47.3C1086,697.82,1056.82,713.13,993,703l-12.5-4.14C970.12,684.29,963.4,680,953,664.56,948.73,465.82,968.54,276.06,965.5,92a283.84,283.84,0,0,1,5-59.15c22,18.8,29.23-4.22,42.48,1.54,15.26,6.64,2.61,17.34,15,21.77,11.26-3.58.27-33.24,17.49-29.83,12.94,7.21.58,14.59,10,22.18C1061.68,34.14,1070.9,23.28,1078,9.86Z"/><path d="M1488.44,106.52c164.39,0,5.46,433.72,56.41,433.72,55.21,0,322.12-431.9,109.19-503.48,0,0,115.27-97.06,138.91,24.25,31,160.76-197.74,563.55-303.3,563.55s49.74-485.29-20-485.29c-72.78,0-81.89,151.66-12.12,175.31C1296.74,329.14,1330.11,106.52,1488.44,106.52Z"/><path d="M163.39,238.53v30.13q-22.95-20.46-55-20.46-34.56,0-58.47,25T26,333.35q0,34.56,23.63,59.58t58.2,25q31.52,0,55.57-21.56v30.68a105.79,105.79,0,0,1-54.74,14.66q-44.79,0-76.72-31.24T0,334.18q0-46.17,32.35-78t78.51-31.79Q140.44,224.43,163.39,238.53Z"/><path d="M347.24,385.05H251.58L227.8,437.3H199.88L299.41,220l99.53,217.3H371Zm-10.78-23.77-37-84.33-37.05,84.33Z"/><path d="M541.86,441.73,479.38,299.62h-.55L454.5,437.3H427.68L470.26,220l71.6,164.22L613.47,220,656,437.3H629.23L604.9,299.62h-.56Z"/><path d="M732.9,349.94V437.3h-26V228.85h29.86q46.17,0,65.11,15.07t18.93,45.2q0,31-20.31,45.89t-52.67,14.93Zm0-97.87v74.65h8.29a129.39,129.39,0,0,0,20-1.38,71.13,71.13,0,0,0,17.28-5.12,28,28,0,0,0,13.27-11.75q4.69-8,4.7-19.9,0-11.61-5-19.36A28.09,28.09,0,0,0,777.41,258a83.8,83.8,0,0,0-17.69-4.7,140.12,140.12,0,0,0-19.91-1.25Z"/></g></g></svg>