<svg xmlns="http://www.w3.org/2000/svg" viewBox="0 0 1240.32 431.47"><defs><style>.cls-1,.cls-2{fill:#fff;}.cls-2{fill-rule:evenodd;}</style></defs><title>youthlive-white</title><g id="Layer_2" data-name="Layer 2"><g id="headers"><path class="cls-1" d="M0,176H25.64L41,198.37,56.42,176H82.07L51.73,218.78v39.5H30.34v-39.5Z"/><path class="cls-1" d="M188.18,215.61c0,26.63-19.1,45.4-45.51,45.4s-45.5-18.77-45.5-45.4c0-24.88,21.82-42.34,45.5-42.34S188.18,190.73,188.18,215.61Zm-68.75.11c0,14.19,10.48,24.56,23.24,24.56s23.25-10.37,23.25-24.56c0-11.35-10.48-21.71-23.25-21.71S119.43,204.37,119.43,215.72Z"/><path class="cls-1" d="M290.25,176v46.28c0,10.59-.43,21.06-8.62,29-6.87,6.76-17.68,9.16-27.28,9.16s-20.41-2.4-27.28-9.16c-8.18-8-8.62-18.44-8.62-29V176h21.39v43.34c0,10.68.76,22.36,14.51,22.36s14.51-11.68,14.51-22.36V176Z"/><path class="cls-1" d="M356.71,258.28H335.33V194.12H317.65V176h56.74v18.13H356.71Z"/><path class="cls-1" d="M454.19,207.76V176h21.4v82.29h-21.4V224.56H423.31v33.72H401.93V176h21.38v31.77Z"/><path class="cls-1" d="M1208.75,138.06q18.66,12.74,25.84,35a102.09,102.09,0,0,1,4.48,20.81,295.57,295.57,0,0,1,1.25,31.21c0,2.39-1.31,3.59-4,3.59H1129.82a1.9,1.9,0,0,0-2.15,2.15,38.13,38.13,0,0,0,2.51,13.28q4.3,12.57,14.35,19.37t24.39,6.82q25.47,0,40.55-16.51,2.87-2.87,5.39-.71L1236,271.7q2.52,2.16.36,5-11.47,13.63-29.77,21.53t-41.26,7.89q-27.28,0-46.11-12.74t-26-35.34q-6.09-19-6.09-42.33,0-24.77,5.73-42.7,7.19-22.6,26-35.16t44.67-12.56Q1190.09,125.32,1208.75,138.06Zm-66.37,27.26a31.18,31.18,0,0,0-12.56,16.33,46.28,46.28,0,0,0-2.15,14.71,1.9,1.9,0,0,0,2.15,2.15h67.81a1.9,1.9,0,0,0,2.15-2.15,46.28,46.28,0,0,0-2.15-14.71,31.23,31.23,0,0,0-12.56-16.33q-9-5.91-21.16-5.92Q1151.32,159.4,1142.38,165.32Z"/><path class="cls-1" d="M795.5,71.22v6.12H777.77V290.8H795.5v6.13H697.16V290.8h17.73V77.34H697.16V71.22Z"/><path class="cls-2" d="M647.85,6l1.52.51c12.06,17,10.69,45.42,10.69,67.61,0,45.59-8,91.71-12.21,138.16-4.31,47.24-9.2,93.61-12.22,138.15,24.33-.6,44.45-22.4,73.28-17.91,12.3,9.22,23.48,23.58,15.26,29.42,8.41,8.13,17.71,15.81,22.9,25.56-23.56,9.52-43.61,20.33-67.17,28.9-27.16,9.89-45,19.24-84,13.07L588.31,427C582,418,577.87,415.4,571.52,406,568.91,284.58,581,168.65,579.15,56.2a172.82,172.82,0,0,1,3.06-36.14c13.41,11.49,17.86-2.57,25.95.94,9.32,4.06,1.59,10.6,9.15,13.3,6.89-2.18.17-20.3,10.69-18.22,7.91,4.4.36,8.91,6.11,13.55C637.91,20.86,643.54,14.22,647.85,6Z"/><path class="cls-1" d="M898.62,65.07c100.43,0,3.34,265,34.46,265,33.73,0,196.79-263.86,66.71-307.58,0,0,70.42-59.3,84.86,14.81,18.91,98.21-120.8,344.28-185.29,344.28S929.75,85.08,887.13,85.08c-44.46,0-50,92.65-7.41,107.1C781.51,201.07,801.9,65.07,898.62,65.07Z"/></g></g></svg>